<svg width="33" height="33" viewBox="0 0 33 33" fill="none" xmlns="http://www.w3.org/2000/svg">
<g clip-path="url(#clip0_2101_2)">
<path d="M16.5 33C25.6127 33 33 25.6127 33 16.5C33 7.3873 25.6127 0 16.5 0C7.3873 0 0 7.3873 0 16.5C0 25.6127 7.3873 33 16.5 33Z" fill="url(#paint0_linear_2101_2)"/>
<path d="M16.5 8.625C20.8313 8.625 24.375 12.15 24.375 16.5C24.375 20.85 20.85 24.375 16.5 24.375C12.15 24.375 8.625 20.85 8.625 16.5C8.625 12.15 12.1688 8.625 16.5 8.625ZM16.5 7.875C11.7375 7.875 7.875 11.7375 7.875 16.5C7.875 21.2625 11.7375 25.125 16.5 25.125C21.2625 25.125 25.125 21.2625 25.125 16.5C25.125 11.7375 21.2625 7.875 16.5 7.875Z" fill="white"/>
<path fill-rule="evenodd" clip-rule="evenodd" d="M14.6236 11.9894C14.6849 11.8301 14.838 11.725 15.0087 11.725H17.7375C17.8734 11.725 18.0006 11.7919 18.0775 11.9039C18.1545 12.016 18.1713 12.1587 18.1225 12.2856L16.6458 16.125H20.2125C20.3809 16.125 20.5324 16.2274 20.5952 16.3837C20.658 16.54 20.6195 16.7187 20.4979 16.8353L13.8979 23.1603C13.7584 23.2939 13.5449 23.3129 13.3841 23.2059C13.2232 23.0989 13.1582 22.8947 13.2275 22.7144L14.9157 18.325H12.7875C12.6516 18.325 12.5244 18.258 12.4475 18.146C12.3705 18.034 12.3537 17.8912 12.4025 17.7644L14.6236 11.9894Z" fill="white"/>
</g>
<defs>
<linearGradient id="paint0_linear_2101_2" x1="16.5" y1="0" x2="16.5" y2="33" gradientUnits="userSpaceOnUse">
<stop stop-color="#2169D6"/>
<stop offset="1" stop-color="#6E46DB"/>
</linearGradient>
<clipPath id="clip0_2101_2">
<rect width="33" height="33" fill="white"/>
</clipPath>
</defs>
</svg>
